<?xml version="1.0" encoding="utf-8"?>
<!-- Generator: Adobe Illustrator 19.0.0, SVG Export Plug-In . SVG Version: 6.00 Build 0)  -->
<svg version="1.1" id="Layer_1" xmlns="http://www.w3.org/2000/svg" xmlns:xlink="http://www.w3.org/1999/xlink" x="0px" y="0px"
	 viewBox="0 0 256 256" style="enable-background:new 0 0 256 256;" xml:space="preserve">
<style type="text/css">
	.st0{fill:none;stroke:#000000;stroke-width:5;stroke-miterlimit:10;}
	.st1{stroke:#000000;stroke-miterlimit:10;}
</style>
<circle id="XMLID_4_" class="st0" cx="126.5" cy="133.5" r="117.7"/>
<path id="XMLID_3_" class="st1" d="M114.2,82.3c-4.8,8.4-5.4,18.8-2.6,28.1c2.7,8.9,8.2,16.8,15.3,22.6c0.1,0.1,0.3,0.2,0.5,0.4
	c0.7,0.5,1.3,1,2,1.5c0.3,0.2,0.6,0.4,1,0.7c0.2,0.1,0.3,0.2,0.5,0.3c0.5,0.3,1,0.6,1.5,0.9c0.1,0.1,0.2,0.1,0.3,0.2
	c0.4,0.2,0.8,0.5,1.2,0.7c0.2,0.1,0.4,0.2,0.6,0.3c0.3,0.2,0.6,0.3,1,0.5c0.6,0.3,1.3,0.6,1.9,0.9c0.1,0.1,0.3,0.1,0.4,0.2
	c0.5,0.2,1.1,0.5,1.6,0.7c0.2,0.1,0.4,0.2,0.7,0.3c0.5,0.2,1,0.4,1.5,0.5c0.2,0.1,0.4,0.1,0.6,0.2c0.7,0.2,1.4,0.4,2.1,0.6
	c16.1,4.3,31.1-1.2,38.9-12.8c0,0-8.6,29.9-46,23.4c-0.7-0.1-1.4-0.4-2.1-0.6c-0.2-0.1-0.4-0.1-0.7-0.2c-0.5-0.2-1-0.3-1.5-0.5
	c-0.2-0.1-0.5-0.2-0.7-0.3c-0.5-0.2-1.1-0.4-1.6-0.7c-0.1-0.1-0.3-0.1-0.4-0.2c-0.7-0.3-1.3-0.6-1.9-0.9c-0.5-0.2-0.8-0.4-1.1-0.6
	c-0.2-0.1-0.3-0.2-0.5-0.3c-0.4-0.2-0.9-0.5-1.3-0.8c-0.1,0-0.1-0.1-0.2-0.1c-0.5-0.3-1-0.6-1.5-1c-0.1-0.1-0.3-0.2-0.4-0.3
	c-0.3-0.2-0.6-0.4-0.9-0.6c-0.8-0.5-1.4-1.1-2.1-1.6c-0.1-0.1-0.3-0.2-0.4-0.4c-0.7-0.5-1.3-1.1-1.9-1.7c-0.7-0.6-1.2-1.1-1.7-1.7
	c-0.1-0.1-0.3-0.3-0.4-0.4c-0.6-0.6-1.1-1.2-1.6-1.7c-1.4-1.3-2.6-3.2-3.7-4.8c-1.2-1.8-2.3-3.6-3.2-5.5c-5.6-11.4-6-25.9,1.2-36.7
	L114.2,82.3z"/>
<path id="XMLID_2_" class="st1" d="M85,93.3c-8.8,17.7-4.9,39.2,6.2,54.8c0.4,0.6,0.8,1.1,1.2,1.7c0.1,0.2,0.3,0.3,0.4,0.5
	c0.3,0.5,0.7,0.9,1.1,1.4c0.1,0.2,0.3,0.3,0.4,0.5c0.5,0.6,1,1.2,1.5,1.7c0.5,0.6,1,1.1,1.5,1.7c0.2,0.2,0.3,0.3,0.5,0.5
	c0.4,0.4,0.8,0.8,1.2,1.2c0.2,0.2,0.3,0.3,0.5,0.5c0.5,0.5,1.1,1,1.6,1.6c0.7,0.6,1.2,1.1,1.7,1.5c0.2,0.2,0.4,0.3,0.6,0.5
	c0.4,0.3,0.8,0.7,1.3,1c0.2,0.2,0.4,0.3,0.6,0.5c0.5,0.4,0.9,0.7,1.4,1c0.2,0.1,0.3,0.2,0.5,0.3c0.5,0.3,1,0.7,1.5,1
	c0.2,0.1,0.4,0.3,0.6,0.4c0.7,0.4,1.4,0.9,2.1,1.3c0.2,0.1,0.4,0.2,0.5,0.3c0.5,0.3,1.1,0.6,1.6,0.9c0.3,0.2,0.6,0.3,0.9,0.5
	c0.4,0.2,0.9,0.5,1.3,0.7c0.2,0.1,0.3,0.2,0.5,0.2c0.6,0.3,1.1,0.6,1.7,0.8c0.1,0.1,0.3,0.1,0.4,0.2c0.7,0.3,1.3,0.6,2,0.9
	c0.2,0.1,0.4,0.1,0.5,0.2c0.6,0.2,1.2,0.5,1.9,0.7c1,0.4,1.7,0.6,2.4,0.8c0.2,0.1,0.4,0.1,0.6,0.2c0.7,0.2,1.5,0.5,2.2,0.6
	c19.9,4.7,40.8,0.5,52.6-15.5c0,0-14.1,39.3-62.4,30.2c-0.8-0.1-1.5-0.4-2.2-0.7c-0.2-0.1-0.3-0.1-0.5-0.2c-0.7-0.2-1.4-0.5-2.2-0.7
	c-0.9-0.3-1.5-0.6-2.2-0.8c-0.2-0.1-0.3-0.1-0.5-0.2c-0.7-0.3-1.4-0.6-2.1-0.9c-0.1-0.1-0.2-0.1-0.4-0.2c-0.6-0.3-1.2-0.6-1.8-0.8
	c-0.2-0.1-0.3-0.2-0.5-0.2c-0.6-0.3-1-0.5-1.4-0.7c-0.3-0.2-0.6-0.3-0.9-0.5c-0.5-0.3-1-0.6-1.6-0.9c-0.2-0.1-0.4-0.2-0.6-0.3
	c-0.7-0.4-1.4-0.9-2.1-1.3c-0.2-0.1-0.4-0.3-0.6-0.4c-0.4-0.3-0.9-0.6-1.3-0.9c-0.3-0.2-0.5-0.3-0.6-0.5c-0.5-0.3-0.9-0.7-1.4-1
	c-0.2-0.2-0.4-0.3-0.6-0.5c-0.4-0.3-0.8-0.7-1.2-1c-0.2-0.2-0.4-0.3-0.6-0.5c-0.5-0.4-1-0.8-1.5-1.3c-0.1-0.1-0.2-0.2-0.3-0.2
	c-0.6-0.5-1.1-1-1.6-1.5c-0.2-0.2-0.3-0.3-0.5-0.5c-0.4-0.4-0.8-0.8-1.2-1.2c-0.2-0.2-0.3-0.3-0.5-0.5c-0.5-0.5-1-1.1-1.5-1.6
	c-0.6-0.7-1.1-1.2-1.5-1.8c-0.1-0.2-0.3-0.3-0.4-0.5c-0.4-0.4-0.7-0.9-1-1.3c-0.1-0.2-0.3-0.4-0.4-0.6c-0.4-0.5-0.8-1-1.1-1.5
	c-0.1-0.1-0.1-0.2-0.2-0.3c-0.5-0.7-0.9-1.3-1.3-1.9c-0.1-0.2-0.2-0.4-0.4-0.6c-0.3-0.5-0.6-0.9-0.8-1.4c-0.1-0.2-0.3-0.5-0.4-0.7
	c-0.2-0.4-0.5-0.9-0.7-1.3c-0.1-0.2-0.3-0.5-0.4-0.7c-0.1-0.1-0.2-0.3-0.2-0.4c-0.1-0.2-0.2-0.5-0.4-0.7c-0.2-0.4-0.4-0.7-0.6-1.1
	c-7.6-15.9-8.9-35.3,1.1-50.2L85,93.3z"/>
<path id="XMLID_1_" class="st1" d="M137.6,77c-5.9,11.1-0.3,24.7,8.8,31.8c1.6,1.2,3.3,2.3,5.1,3.2c0.9,0.5,1.9,0.9,2.9,1.3
	c0.8,0.3,1.6,0.6,2.4,0.8c10.1,2.5,18.3,0.8,23.2-6.5c-1.5,2.2-7.1,17.4-27.7,13.2c-0.5-0.1-0.9-0.3-1.3-0.4c-0.1,0-0.3-0.1-0.4-0.1
	c-0.3-0.1-0.6-0.2-0.9-0.3c-7.5-2.8-13.9-8.8-17-16.5c-3-7.2-2.5-15.3,1.7-21.8L137.6,77z"/>
</svg>
