<?xml version="1.0" encoding="utf-8"?>
<!-- Generator: Adobe Illustrator 19.0.0, SVG Export Plug-In . SVG Version: 6.00 Build 0)  -->
<svg version="1.1" id="Layer_1" xmlns="http://www.w3.org/2000/svg" xmlns:xlink="http://www.w3.org/1999/xlink" x="0px" y="0px"
	 viewBox="0 0 100 100" style="enable-background:new 0 0 100 100;" xml:space="preserve">
<style type="text/css">
	.st0{fill:#ecf0f1;stroke:#bdc3c7;stroke-miterlimit:10;}
</style>
<path id="XMLID_6_" class="st0" d="M32.5,89.2c7.2-6.2,15.2-11.1,23-16.5c3.6-2.5,7.4-5,9.8-8.7c2.5-3.9,2.1-7.8,1.3-12.2
	c-1.5-8.4-2.4-17,2.6-24.4c2.8-4.2,6.7-7.2,11.1-9.1C72.2,10.7,61.3,6,49.3,6c-12.1,0-23,4.7-31,12.4c13.8-0.1,28.2,4.2,32.3,18.9
	c2.8,10-2.9,18.8-10.2,25.1c-7.5,6.4-15.8,12.2-24.9,16.3c4.3,5,9.8,9,16,11.7C31.7,90,32,89.6,32.5,89.2z"/>
<path id="XMLID_9_" class="st0" d="M87,26.5c-7.9,1.3-12.2,9-11.7,16.6c0.5,7.7,3.4,14.6,0.4,22.2c-2.8,7-8.5,11.4-14.5,15.6
	c-6.1,4.3-12.5,8.2-18.4,12.8c2.1,0.3,4.3,0.5,6.5,0.5c24.6,0,44.6-19.7,44.6-44.1C93.9,41.4,91.3,33.3,87,26.5z"/>
<path id="XMLID_8_" class="st0" d="M10,70.3c7.4-3.3,14-7.7,20.5-12.7c5.4-4.1,12.4-10.1,10.5-17.7c-3.3-12.7-20-12.4-30.7-11.1
	C6.7,35.2,4.7,42.4,4.7,50c0,7.4,1.8,14.3,5.1,20.4C9.8,70.4,9.9,70.4,10,70.3z"/>
</svg>
